<svg xmlns="http://www.w3.org/2000/svg" xlink="http://www.w3.org/1999/xlink" width="0" height="0" style="display:none;"><symbol viewBox="0 0 24 24" id="search-line"><path fill="none" d="M0 0h24v24H0z"/><path d="M18.031 16.617l4.283 4.282-1.415 1.415-4.282-4.283A8.96 8.96 0 0 1 11 20c-4.968 0-9-4.032-9-9s4.032-9 9-9 9 4.032 9 9a8.96 8.96 0 0 1-1.969 5.617zm-2.006-.742A6.977 6.977 0 0 0 18 11c0-3.868-3.133-7-7-7-3.868 0-7 3.132-7 7 0 3.867 3.132 7 7 7a6.977 6.977 0 0 0 4.875-1.975l.15-.15z"/></symbol><symbol viewBox="0 0 24 24" id="arrow-left-line"><path fill="none" d="M0 0h24v24H0z"/><path d="M7.828 11H20v2H7.828l5.364 5.364-1.414 1.414L4 12l7.778-7.778 1.414 1.414z"/></symbol><symbol viewBox="0 0 24 24" id="arrow-down-s-line"><path fill="none" d="M0 0h24v24H0z"/><path d="M12 13.172l4.95-4.95 1.414 1.414L12 16 5.636 9.636 7.05 8.222z"/></symbol><symbol viewBox="0 0 24 24" id="chat-new-line"><path fill="none" d="M0 0h24v24H0z"/><path d="M14 3v2H4v13.385L5.763 17H20v-7h2v8a1 1 0 0 1-1 1H6.455L2 22.5V4a1 1 0 0 1 1-1h11zm5 0V0h2v3h3v2h-3v3h-2V5h-3V3h3z"/></symbol></svg>